<?xml version="1.0" encoding="UTF-8"?><svg id="Warstwa_2" xmlns="http://www.w3.org/2000/svg" viewBox="0 0 32 32"><defs><style>.cls-1{fill:#fff;}.cls-2{fill:none;}</style></defs><g id="Warstwa_1-2"><g><circle class="cls-2" cx="16" cy="16" r="16"/><g><path class="cls-1" d="M14.4,15.44l7.91-7.91-1.61-1.61-6.3,6.3V5.89L4.29,16l10.11,10.11v-6.33l6.3,6.3,1.61-1.61-7.91-7.91v-1.11Zm-2.28,5.16l-4.6-4.6,4.6-4.6v3.1l-1.5,1.5,1.5,1.5v3.1Z"/><path class="cls-1" d="M21.53,12.08c-2.16,0-3.91,1.76-3.91,3.91s1.76,3.91,3.91,3.91,3.91-1.76,3.91-3.91-1.76-3.91-3.91-3.91Zm0,5.54c-.9,0-1.63-.73-1.63-1.63s.73-1.63,1.63-1.63,1.63,.73,1.63,1.63-.73,1.63-1.63,1.63Z"/></g></g></g></svg>